<?xml version="1.0" standalone="no"?>
<!DOCTYPE svg PUBLIC "-//W3C//DTD SVG 20010904//EN"
 "http://www.w3.org/TR/2001/REC-SVG-20010904/DTD/svg10.dtd">
<svg version="1.0" xmlns="http://www.w3.org/2000/svg"
 width="1536.000000pt" height="1536.000000pt" viewBox="0 0 1536.000000 1536.000000"
 preserveAspectRatio="xMidYMid meet">
<metadata>
Created by potrace 1.11, written by Peter Selinger 2001-2013
</metadata>
<g transform="translate(0.000000,1536.000000) scale(0.100000,-0.100000)"
fill="#000000" stroke="none">
<path d="M3768 11413 c-29 -5 -87 -63 -90 -91 -6 -74 -10 -223 -5 -242 7 -33
37 -77 68 -100 58 -43 129 -112 129 -126 0 -7 3 -14 8 -16 9 -4 150 -193 177
-239 6 -9 36 -59 68 -112 31 -52 57 -98 57 -102 0 -3 6 -13 13 -20 24 -28 32
-41 57 -87 14 -27 28 -48 32 -48 5 0 8 -8 8 -19 0 -10 7 -24 15 -31 8 -7 13
-16 10 -20 -3 -5 -1 -12 5 -15 6 -4 26 -39 46 -78 19 -39 40 -74 45 -78 6 -3
10 -10 9 -15 -1 -12 32 -88 43 -95 5 -3 8 -9 7 -13 -1 -4 13 -37 31 -74 59
-125 83 -182 81 -194 -1 -5 2 -8 8 -8 5 0 10 -6 10 -13 0 -7 10 -33 22 -58 35
-71 63 -156 40 -123 -4 5 -24 18 -44 27 -20 10 -40 26 -43 37 -4 11 -11 20
-16 20 -5 0 -9 6 -9 13 0 20 -99 111 -145 134 -79 40 -153 48 -272 29 -21 -3
-60 -8 -88 -11 -111 -11 -132 -23 -159 -87 -12 -27 -13 -44 -5 -72 10 -38 58
-92 81 -93 18 -1 42 -7 48 -13 3 -3 13 -9 23 -15 10 -5 19 -14 20 -19 2 -8
-74 -52 -203 -118 -36 -18 -66 -36 -68 -40 -2 -5 -9 -8 -16 -8 -7 0 -22 -9
-34 -20 -12 -11 -24 -20 -27 -20 -3 0 -18 -7 -33 -17 -98 -60 -123 -76 -171
-110 -134 -93 -195 -143 -313 -255 -33 -31 -65 -55 -71 -52 -29 11 -38 68 -23
140 6 31 -23 83 -56 100 -16 8 -50 18 -76 21 -26 3 -48 7 -50 8 -2 2 -20 -2
-40 -7 -45 -13 -76 -45 -92 -95 -7 -21 -15 -42 -19 -48 -3 -5 -6 -14 -8 -20
-1 -5 -4 -19 -7 -30 -2 -11 -11 -49 -20 -85 -30 -125 -18 -336 21 -378 8 -8
12 -65 12 -180 1 -178 13 -243 51 -277 11 -10 20 -22 20 -26 0 -11 68 -79 79
-79 5 0 11 -4 13 -10 2 -5 26 -33 53 -62 28 -29 69 -78 92 -108 36 -48 42 -64
47 -120 7 -89 7 -89 31 -112 36 -35 83 -43 233 -42 78 0 142 -1 142 -2 0 -1
-46 -35 -102 -75 -57 -41 -105 -76 -108 -79 -3 -3 -21 -17 -40 -30 -60 -42
-73 -53 -130 -111 -68 -69 -80 -84 -80 -102 0 -7 -4 -17 -9 -22 -15 -18 -43
-149 -46 -222 -3 -50 2 -93 15 -139 11 -36 19 -69 18 -73 -1 -3 1 -13 5 -21
10 -27 113 -380 122 -420 11 -50 103 -179 129 -180 5 0 14 -7 20 -16 27 -36
108 -28 285 26 35 10 67 19 70 18 3 -1 13 2 21 5 8 3 62 19 120 36 58 16 120
34 138 40 18 5 35 10 37 10 3 1 7 2 10 2 3 1 8 2 13 3 29 6 111 29 127 37 11
5 31 11 45 13 14 3 25 5 25 6 0 1 7 3 15 5 8 2 24 6 35 9 11 3 36 9 56 14 20
5 42 12 48 16 6 4 21 9 32 11 12 3 47 12 78 21 31 9 63 18 71 19 8 2 15 4 15
5 0 1 7 3 15 5 30 8 86 24 140 40 30 9 84 25 120 35 125 35 275 81 290 89 9 5
31 12 50 16 19 4 40 11 45 15 6 4 55 19 110 34 55 15 132 36 170 47 39 11 81
22 93 25 13 2 34 11 47 20 22 14 23 14 34 -31 6 -25 12 -47 12 -50 0 -2 7 -28
15 -57 8 -29 17 -64 20 -78 3 -14 7 -33 10 -42 5 -18 12 -49 20 -88 2 -14 7
-32 10 -40 3 -8 12 -40 21 -70 8 -30 26 -98 40 -150 14 -52 27 -104 28 -115 2
-11 6 -31 10 -45 8 -39 18 -94 30 -180 4 -25 8 -49 9 -55 2 -5 6 -31 10 -56 9
-51 52 -106 105 -133 17 -9 31 -14 31 -12 0 3 12 -1 26 -9 16 -8 49 -12 83
-11 91 5 125 18 176 68 17 16 58 42 93 58 34 16 62 34 62 39 0 6 11 13 25 17
13 3 30 12 36 20 15 18 99 58 106 50 3 -2 16 6 30 20 22 22 35 28 55 25 4 0
20 12 35 28 26 25 151 92 258 136 66 28 356 107 398 109 9 0 17 3 17 6 0 3 17
6 38 5 20 0 57 5 82 10 61 14 465 6 538 -11 29 -7 79 -8 127 -4 28 2 72 -2
184 -16 25 -3 47 -7 51 -9 3 -2 25 -6 50 -10 25 -4 49 -9 54 -12 4 -3 50 -17
100 -30 50 -13 107 -29 126 -34 19 -5 46 -12 60 -14 37 -7 53 -11 72 -19 9 -4
22 -9 30 -10 7 -1 29 -9 48 -18 19 -9 51 -22 70 -29 19 -7 55 -25 80 -39 25
-15 60 -33 78 -41 17 -7 32 -17 32 -21 0 -5 6 -8 13 -8 7 0 29 -11 50 -25 20
-14 37 -23 37 -20 0 4 12 -2 28 -13 15 -10 52 -32 82 -49 77 -42 104 -57 110
-63 8 -8 128 -63 137 -63 4 1 24 -7 44 -18 20 -10 39 -15 43 -12 3 4 6 1 6 -5
0 -7 10 -12 23 -12 13 0 27 -4 33 -9 5 -5 36 -16 69 -24 33 -9 101 -28 150
-42 50 -14 104 -28 120 -31 17 -2 37 -7 45 -9 8 -2 26 -6 40 -9 14 -2 39 -9
55 -16 17 -6 31 -11 33 -11 1 1 3 1 5 0 49 -15 215 -28 307 -24 114 5 137 8
230 34 79 23 305 115 375 153 11 6 63 33 115 60 89 47 152 87 175 112 6 6 35
31 65 56 56 46 200 190 200 201 0 3 11 19 25 35 14 16 38 47 53 69 15 22 30
42 35 43 4 2 7 8 7 13 0 6 8 22 19 37 10 15 40 59 65 98 26 39 55 80 66 92 11
12 20 24 20 26 0 3 15 29 33 58 42 67 90 167 115 244 11 32 33 89 50 126 16
37 28 69 25 71 -2 3 5 24 16 48 12 23 19 45 16 47 -2 2 2 17 10 33 9 16 14 32
13 36 -1 4 4 28 11 53 7 25 15 53 17 62 2 10 7 28 10 41 3 12 7 36 10 52 2 17
9 48 14 70 14 54 20 96 27 187 4 66 0 116 -22 263 -2 11 -6 44 -10 74 -4 30
-11 64 -15 77 -5 12 -7 24 -4 27 3 2 0 26 -7 53 -6 27 -13 60 -15 74 -4 20
-22 111 -29 140 -1 4 -33 107 -40 130 -33 102 -224 369 -365 511 -73 74 -92
88 -129 94 -23 4 -45 4 -48 1 -8 -7 -23 14 -64 90 -18 32 -35 61 -39 64 -4 3
-13 20 -21 38 -8 17 -17 32 -21 32 -5 0 -8 5 -8 11 0 6 -20 40 -45 76 -25 35
-45 66 -45 69 0 3 -10 16 -22 29 -13 13 -39 42 -58 65 -64 77 -193 195 -232
212 -15 7 -28 16 -28 20 0 5 -3 7 -7 6 -5 -1 -48 17 -96 40 -131 62 -174 75
-210 62 -37 -12 -40 -13 -32 0 14 22 21 186 11 235 -14 64 -132 135 -191 115
-10 -4 -33 -4 -50 0 -16 4 -120 6 -231 6 l-201 -1 16 25 c23 38 88 125 103
141 30 31 88 113 88 125 0 7 4 14 9 16 24 9 33 219 12 294 -15 56 -49 104 -91
128 -30 18 -52 21 -165 21 -94 0 -139 -4 -162 -15 -18 -8 -33 -18 -33 -22 0
-5 -6 -8 -14 -8 -12 0 -64 -52 -125 -125 -13 -15 -48 -76 -77 -134 -30 -58
-54 -100 -54 -92 0 21 -52 131 -61 131 -5 0 -9 6 -9 13 0 17 -64 86 -120 128
-24 19 -45 33 -47 32 -2 -1 -8 -1 -15 2 -63 20 -212 27 -273 12 -11 -3 -25 -6
-31 -6 -19 -2 -66 -54 -82 -91 -16 -38 -23 -166 -11 -217 l7 -33 -29 21 c-16
11 -39 23 -51 26 -32 8 -185 9 -230 2 -21 -4 -38 -2 -38 3 0 5 -5 6 -10 3 -6
-3 -101 -8 -213 -10 -196 -3 -261 -11 -318 -41 -25 -12 -58 -54 -64 -78 -1 -6
-8 -24 -14 -41 -7 -16 -24 -64 -37 -105 -14 -41 -27 -82 -31 -90 -3 -8 -7 -20
-9 -27 -1 -7 -10 -42 -19 -79 -9 -37 -18 -75 -20 -83 -2 -9 -19 -62 -39 -118
-19 -57 -32 -103 -29 -103 3 0 1 -6 -5 -12 -8 -11 -24 -64 -24 -83 1 -2 -15
-48 -34 -102 -40 -113 -43 -122 -49 -183 -5 -38 -11 -72 -21 -112 -1 -5 -2
-14 -3 -20 -1 -12 -23 14 -51 63 -8 14 -41 70 -74 125 -32 54 -77 131 -99 169
-49 84 -99 159 -109 163 -5 2 -8 8 -8 13 0 5 -18 38 -40 74 -22 36 -40 69 -40
74 0 4 -11 20 -25 35 -13 14 -24 27 -23 29 3 4 -35 61 -56 85 -11 12 -17 22
-13 22 3 0 1 13 -4 29 -11 31 -45 59 -82 68 -49 12 -316 8 -402 -5 -49 -8
-102 -15 -117 -16 -16 0 -28 -5 -28 -9 0 -5 -4 -6 -9 -2 -14 8 -63 -16 -89
-45 -16 -17 -25 -21 -30 -13 -4 6 -19 16 -32 21 -27 9 -278 8 -345 -2 -22 -3
-69 -8 -105 -10 -151 -12 -183 -17 -220 -36 l-40 -20 -1 20 c-2 27 -3 33 -10
45 -6 9 -31 80 -35 98 -1 4 -2 8 -4 10 -1 1 -3 9 -5 17 -2 8 -10 35 -19 59 -9
24 -16 45 -16 47 0 2 28 -24 62 -57 60 -60 100 -91 122 -96 6 -1 36 -9 66 -16
30 -8 65 -13 78 -12 12 1 22 -3 22 -9 0 -7 3 -7 8 -1 4 6 52 11 107 11 107 2
219 17 239 33 6 5 24 12 40 15 43 8 74 33 91 72 8 19 28 49 45 65 16 17 30 34
30 39 0 5 6 15 14 22 7 8 21 49 31 93 10 44 20 87 22 95 12 49 -1 302 -16 323
-1 1 -4 18 -7 37 -2 19 -9 58 -14 85 -6 28 -13 66 -16 85 -4 19 -10 42 -15 51
-4 9 -5 19 -2 23 3 3 2 6 -3 6 -5 0 -10 8 -11 18 -1 9 -4 42 -6 72 -9 106 -26
139 -82 160 -34 13 -89 5 -119 -16 -11 -8 -28 -14 -38 -14 -10 0 -18 -4 -18
-10 0 -5 -6 -10 -14 -10 -11 0 -72 -63 -96 -100 -3 -4 -43 -6 -90 -5 -47 1
-105 -4 -130 -12 -25 -7 -47 -13 -50 -13 -14 -1 -76 -24 -84 -31 -9 -8 -64 17
-78 36 -4 6 -8 7 -8 4 0 -4 -17 -1 -37 6 -44 15 -84 10 -136 -17 -60 -30 -72
-68 -73 -228 0 -74 2 -139 5 -145 6 -11 7 -15 16 -82 3 -24 8 -50 11 -58 4 -8
4 -15 1 -15 -3 0 -13 24 -23 53 -9 28 -15 52 -13 52 2 0 -6 14 -17 30 -12 17
-27 55 -33 85 -7 30 -16 64 -21 75 -15 38 -58 160 -65 185 -4 14 -11 30 -15
35 -4 6 -10 24 -14 40 -4 17 -13 44 -21 60 -12 29 -26 68 -26 72 0 2 -11 27
-24 58 -14 30 -23 55 -21 55 3 0 -6 20 -20 46 -13 25 -24 50 -24 55 0 13 -17
30 -54 55 -27 17 -52 19 -315 20 -157 1 -308 5 -336 9 -27 4 -85 8 -127 8 -43
1 -78 4 -78 7 0 7 -45 12 -82 9 -7 0 -29 2 -48 5 -47 7 -368 15 -402 9z m5371
-1415 c15 -36 40 -93 65 -150 9 -21 17 -40 17 -43 0 -2 11 -26 24 -51 14 -26
24 -48 23 -49 -7 -6 -177 -47 -205 -50 -29 -3 -32 -1 -29 18 3 12 5 23 7 25 1
1 2 5 3 10 16 72 41 160 48 169 12 15 20 57 21 111 1 50 8 53 26 10z m1826
-867 c16 -24 30 -56 31 -73 2 -16 10 -40 18 -53 9 -14 18 -32 19 -42 2 -10 10
-31 16 -48 7 -16 14 -34 15 -40 1 -5 5 -15 8 -20 9 -15 40 -190 45 -250 8
-115 8 -192 2 -228 -3 -20 -3 -40 1 -42 9 -5 8 -23 -1 -40 -3 -5 -7 -30 -8
-55 -1 -25 -12 -76 -23 -115 -12 -38 -22 -77 -23 -85 -3 -31 -38 -165 -44
-170 -4 -3 -12 -16 -19 -30 -11 -22 -12 -17 -7 35 3 33 8 81 11 107 4 37 0 56
-19 92 -13 25 -27 43 -31 39 -3 -3 -6 -1 -6 5 0 10 -56 27 -85 26 -53 -2 -120
-65 -146 -138 -11 -31 -29 -49 -83 -84 -64 -43 -179 -90 -236 -97 -122 -16
-416 -21 -570 -9 -41 3 -83 6 -93 7 -16 1 -15 3 5 18 12 10 25 16 27 13 2 -2
9 0 15 5 19 16 166 92 166 86 0 -3 6 -1 13 5 15 14 80 50 177 98 41 20 77 40
78 45 2 4 7 7 12 7 4 0 34 15 67 34 32 18 92 52 133 76 143 80 210 122 210
131 0 4 14 24 31 43 29 34 42 65 54 133 3 18 12 61 20 95 8 35 17 79 20 98 3
19 8 42 10 50 10 36 19 87 19 118 1 17 4 32 7 32 3 0 12 33 19 73 8 39 14 74
15 77 2 10 26 126 31 153 l6 28 31 -34 c18 -18 45 -53 62 -76z m-1230 -151 c8
0 15 -4 15 -9 0 -5 15 -14 33 -21 56 -23 59 -29 27 -60 -17 -16 -30 -33 -30
-38 0 -5 -7 -15 -15 -22 -8 -6 -14 -15 -13 -18 3 -25 -3 -33 -19 -27 -33 14
-113 5 -174 -19 l-60 -25 2 22 c4 37 -18 95 -45 120 -31 29 -32 36 -8 36 97 0
145 24 177 88 35 68 36 68 67 19 15 -26 35 -46 43 -46z m-5731 -802 c9 -24 18
-54 20 -68 2 -14 18 -61 36 -105 33 -84 39 -103 47 -148 3 -15 9 -30 14 -33 5
-3 9 -16 9 -30 0 -13 5 -24 10 -24 6 0 10 -8 10 -17 0 -10 9 -33 20 -51 25
-40 25 -39 -6 -46 -14 -4 -44 -19 -67 -33 -23 -15 -44 -26 -47 -27 -3 0 -21
-9 -40 -20 -19 -12 -38 -20 -42 -18 -5 1 -8 -2 -8 -8 0 -5 -4 -10 -9 -10 -5 0
-43 -20 -85 -45 -44 -26 -76 -39 -77 -32 0 6 -1 95 -1 196 0 101 -4 196 -9
211 -6 15 -28 46 -50 71 -63 71 -64 72 -13 99 24 14 44 28 44 32 0 5 6 8 13 8
8 0 24 9 37 20 13 11 26 20 30 20 6 0 23 13 68 50 6 6 12 8 12 5 0 -6 21 10
43 32 19 19 24 16 41 -29z m579 -937 c9 -7 23 -14 30 -15 8 -1 22 -8 30 -14
19 -16 12 -42 -41 -142 -99 -185 -171 -330 -166 -330 4 0 2 -6 -4 -12 -5 -7
-13 -27 -17 -45 -7 -35 -25 -45 -67 -38 -16 3 -39 7 -53 9 -13 3 -28 7 -32 9
-5 3 -51 8 -103 12 -114 7 -159 14 -182 26 -9 5 -25 9 -36 9 -11 0 -36 15 -56
34 -47 45 -49 88 -5 154 18 26 39 53 47 60 20 15 122 16 159 0 15 -6 30 -12
33 -13 3 -1 21 -9 41 -19 63 -32 128 -7 163 62 9 18 14 32 12 32 -3 0 2 16 10
35 8 19 14 38 13 41 -3 12 75 123 83 118 4 -3 8 -1 8 5 0 10 85 40 106 37 7
-1 19 -8 27 -15z"/>
</g>
</svg>
